<svg xmlns="http://www.w3.org/2000/svg" version="1.1" xmlns:xlink="http://www.w3.org/1999/xlink" xmlns:svgjs="http://svgjs.dev/svgjs" width="1000" height="184" viewBox="0 0 1000 184"><g transform="matrix(1,0,0,1,-0.6060491211549106,-0.5258270737539732)"><svg viewBox="0 0 396 73" data-background-color="#ffffff" preserveAspectRatio="xMidYMid meet" height="184" width="1000" xmlns="http://www.w3.org/2000/svg" xmlns:xlink="http://www.w3.org/1999/xlink"><g id="tight-bounds" transform="matrix(1,0,0,1,0.23999545197733596,0.20861617600021987)"><svg viewBox="0 0 395.52 72.58276764799957" height="72.58276764799957" width="395.52"><g><svg viewBox="0 0 495.86929320620277 90.99809287157056" height="72.58276764799957" width="395.52"><g transform="matrix(1,0,0,1,100.34929320620277,25.693559358250493)"><svg viewBox="0 0 395.52 39.61097415506958" height="39.61097415506958" width="395.52"><g id="textblocktransform"><svg viewBox="0 0 395.52 39.61097415506958" height="39.61097415506958" width="395.52" id="textblock"><g><svg viewBox="0 0 395.52 39.61097415506958" height="39.61097415506958" width="395.52"><g transform="matrix(1,0,0,1,0,0)"><svg width="395.52" viewBox="1.9500000476837158 -28.979999542236328 294.7099914550781 29.520000457763672" height="39.61097415506958" data-palette-color="#0063db"><path d="M17.02-28.98Q17.85-28.98 18.2-28.6 18.55-28.22 18.55-27.32L18.55-27.32Q18.55-26.42 18.2-26.04 17.85-25.66 17.02-25.66L17.02-25.66 11.11-25.66 11.11-3.32 23.19-3.32 23.19-11.35Q23.19-12.21 23.61-12.57 24.02-12.94 25.02-12.94L25.02-12.94Q26.03-12.94 26.44-12.57 26.86-12.21 26.86-11.35L26.86-11.35 26.86-1.66Q26.86-0.76 26.5-0.38 26.15 0 25.32 0L25.32 0 3.49 0Q2.66 0 2.31-0.38 1.95-0.76 1.95-1.66L1.95-1.66Q1.95-2.56 2.31-2.94 2.66-3.32 3.49-3.32L3.49-3.32 7.45-3.32 7.45-25.66 3.49-25.66Q2.66-25.66 2.31-26.04 1.95-26.42 1.95-27.32L1.95-27.32Q1.95-28.22 2.31-28.6 2.66-28.98 3.49-28.98L3.49-28.98 17.02-28.98ZM55-10.5Q56-10.5 56.42-10.13 56.83-9.77 56.83-8.91L56.83-8.91 56.83-1.66Q56.83-0.76 56.48-0.38 56.13 0 55.3 0L55.3 0 33.47 0Q32.64 0 32.29-0.38 31.93-0.76 31.93-1.66L31.93-1.66Q31.93-2.56 32.29-2.94 32.64-3.32 33.47-3.32L33.47-3.32 35.96-3.32 35.96-25.66 33.47-25.66Q32.64-25.66 32.29-26.04 31.93-26.42 31.93-27.32L31.93-27.32Q31.93-28.22 32.29-28.6 32.64-28.98 33.47-28.98L33.47-28.98 54.81-28.98Q55.64-28.98 55.99-28.6 56.35-28.22 56.35-27.32L56.35-27.32 56.35-21.12Q56.35-20.26 55.93-19.9 55.52-19.53 54.51-19.53L54.51-19.53Q53.51-19.53 53.1-19.9 52.68-20.26 52.68-21.12L52.68-21.12 52.68-25.66 39.62-25.66 39.62-16.6 45.92-16.6 45.92-18.82Q45.92-19.68 46.3-20.04 46.68-20.41 47.65-20.41L47.65-20.41Q48.63-20.41 49.01-20.04 49.39-19.68 49.39-18.82L49.39-18.82 49.39-11.06Q49.39-10.21 49.01-9.84 48.63-9.47 47.65-9.47L47.65-9.47Q46.68-9.47 46.3-9.84 45.92-10.21 45.92-11.06L45.92-11.06 45.92-13.28 39.62-13.28 39.62-3.32 53.17-3.32 53.17-8.91Q53.17-9.77 53.59-10.13 54-10.5 55-10.5L55-10.5ZM75.58-28.98Q76.56-28.98 77.16-28.6 77.75-28.22 78.05-27.39L78.05-27.39 86.66-3.32 88.15-3.32Q88.98-3.32 89.34-2.94 89.69-2.56 89.69-1.66L89.69-1.66Q89.69-0.76 89.34-0.38 88.98 0 88.15 0L88.15 0 79.51 0Q78.68 0 78.33-0.38 77.97-0.76 77.97-1.66L77.97-1.66Q77.97-2.56 78.33-2.94 78.68-3.32 79.51-3.32L79.51-3.32 82.81-3.32 80.81-9.13 68.96-9.13 66.94-3.32 69.89-3.32Q70.72-3.32 71.08-2.94 71.43-2.56 71.43-1.66L71.43-1.66Q71.43-0.76 71.08-0.38 70.72 0 69.89 0L69.89 0 61.74 0Q60.91 0 60.55-0.38 60.2-0.76 60.2-1.66L60.2-1.66Q60.2-2.56 60.55-2.94 60.91-3.32 61.74-3.32L61.74-3.32 63.11-3.32 71.19-25.66 66.62-25.66Q65.79-25.66 65.44-26.04 65.08-26.42 65.08-27.32L65.08-27.32Q65.08-28.22 65.44-28.6 65.79-28.98 66.62-28.98L66.62-28.98 75.58-28.98ZM75.14-25.66L74.68-25.66 70.11-12.45 79.68-12.45 75.14-25.66ZM105.78-28.98Q108.83-28.98 111.02-27.95 113.2-26.93 114.34-25.07 115.47-23.22 115.47-20.75L115.47-20.75Q115.47-17.97 113.66-16.04 111.86-14.11 108.71-13.4L108.71-13.4Q110.08-12.87 110.98-11.67L110.98-11.67Q111.74-10.67 112.27-9.68 112.81-8.69 113.47-7.25L113.47-7.25Q114.15-5.76 114.52-5.08L114.52-5.08Q115.47-3.32 116.72-3.32L116.72-3.32 117.4-3.32Q118.23-3.32 118.58-2.94 118.94-2.56 118.94-1.66L118.94-1.66Q118.94-0.76 118.58-0.38 118.23 0 117.4 0L117.4 0 115.64 0Q114.18 0 113.16-0.77 112.15-1.54 111.2-3.39L111.2-3.39Q110.66-4.47 109.88-6.23L109.88-6.23Q109.15-7.84 108.7-8.73 108.24-9.62 107.61-10.5L107.61-10.5Q106.88-11.52 105.85-12.05 104.83-12.57 103.39-12.57L103.39-12.57 100.07-12.57 100.07-3.32 103.24-3.32Q104.07-3.32 104.42-2.94 104.78-2.56 104.78-1.66L104.78-1.66Q104.78-0.76 104.42-0.38 104.07 0 103.24 0L103.24 0 93.43 0Q92.6 0 92.24-0.38 91.89-0.76 91.89-1.66L91.89-1.66Q91.89-2.56 92.24-2.94 92.6-3.32 93.43-3.32L93.43-3.32 96.4-3.32 96.4-25.66 93.43-25.66Q92.6-25.66 92.24-26.04 91.89-26.42 91.89-27.32L91.89-27.32Q91.89-28.22 92.24-28.6 92.6-28.98 93.43-28.98L93.43-28.98 105.78-28.98ZM100.07-25.66L100.07-15.89 105.02-15.89Q111.61-15.89 111.61-20.75L111.61-20.75Q111.61-23.1 109.95-24.38 108.29-25.66 105.27-25.66L105.27-25.66 100.07-25.66ZM146.65-28.98Q147.48-28.98 147.83-28.6 148.18-28.22 148.18-27.32L148.18-27.32Q148.18-26.42 147.83-26.04 147.48-25.66 146.65-25.66L146.65-25.66 145.25-25.66 145.25-0.9Q145.25-0.24 144.8 0.15 144.35 0.54 143.42 0.54L143.42 0.54Q142.13 0.54 141.37-0.81L141.37-0.81 128.7-23.44 128.6-23.44 128.6-3.32 132.05-3.32Q132.88-3.32 133.23-2.94 133.58-2.56 133.58-1.66L133.58-1.66Q133.58-0.76 133.23-0.38 132.88 0 132.05 0L132.05 0 123.4 0Q122.57 0 122.22-0.38 121.87-0.76 121.87-1.66L121.87-1.66Q121.87-2.56 122.22-2.94 122.57-3.32 123.4-3.32L123.4-3.32 125.04-3.32 125.04-25.66 123.16-25.66Q122.33-25.66 121.97-26.04 121.62-26.42 121.62-27.32L121.62-27.32Q121.62-28.22 121.97-28.6 122.33-28.98 123.16-28.98L123.16-28.98 128.63-28.98Q129.16-28.98 129.49-28.81 129.82-28.64 130.02-28.3L130.02-28.3 141.59-7.59 141.69-7.59 141.69-25.66 138.74-25.66Q137.91-25.66 137.55-26.04 137.2-26.42 137.2-27.32L137.2-27.32Q137.2-28.22 137.55-28.6 137.91-28.98 138.74-28.98L138.74-28.98 146.65-28.98ZM205.33-28.98Q206.16-28.98 206.52-28.6 206.87-28.22 206.87-27.32L206.87-27.32 206.87-18.12Q206.87-17.26 206.45-16.89 206.04-16.53 205.04-16.53L205.04-16.53Q204.04-16.53 203.62-16.89 203.21-17.26 203.21-18.12L203.21-18.12 203.21-25.66 196.69-25.66 196.69-3.32 202.45-3.32Q203.28-3.32 203.63-2.94 203.99-2.56 203.99-1.66L203.99-1.66Q203.99-0.76 203.63-0.38 203.28 0 202.45 0L202.45 0 187.27 0Q186.44 0 186.08-0.38 185.73-0.76 185.73-1.66L185.73-1.66Q185.73-2.56 186.08-2.94 186.44-3.32 187.27-3.32L187.27-3.32 193.03-3.32 193.03-25.66 186.51-25.66 186.51-18.12Q186.51-17.26 186.09-16.89 185.68-16.53 184.68-16.53L184.68-16.53Q183.68-16.53 183.26-16.89 182.85-17.26 182.85-18.12L182.85-18.12 182.85-27.32Q182.85-28.22 183.2-28.6 183.55-28.98 184.38-28.98L184.38-28.98 205.33-28.98ZM236.58-28.98Q237.41-28.98 237.76-28.6 238.12-28.22 238.12-27.32L238.12-27.32Q238.12-26.42 237.76-26.04 237.41-25.66 236.58-25.66L236.58-25.66 235.07-25.66 235.07-9.59Q235.07-4.49 232.39-1.98 229.72 0.54 224.84 0.54L224.84 0.54Q219.95 0.54 217.28-1.98 214.61-4.49 214.61-9.59L214.61-9.59 214.61-25.66 213.09-25.66Q212.26-25.66 211.91-26.04 211.55-26.42 211.55-27.32L211.55-27.32Q211.55-28.22 211.91-28.6 212.26-28.98 213.09-28.98L213.09-28.98 221-28.98Q221.83-28.98 222.19-28.6 222.54-28.22 222.54-27.32L222.54-27.32Q222.54-26.42 222.19-26.04 221.83-25.66 221-25.66L221-25.66 218.27-25.66 218.27-10.08Q218.27-6.35 219.86-4.71 221.44-3.08 224.84-3.08L224.84-3.08Q228.23-3.08 229.82-4.71 231.4-6.35 231.4-10.08L231.4-10.08 231.4-25.66 228.67-25.66Q227.84-25.66 227.48-26.04 227.13-26.42 227.13-27.32L227.13-27.32Q227.13-28.22 227.48-28.6 227.84-28.98 228.67-28.98L228.67-28.98 236.58-28.98ZM255.55-28.98Q258.4-28.98 260.4-28 262.41-27.03 263.42-25.26 264.43-23.49 264.43-21.12L264.43-21.12Q264.43-19.26 263.59-17.83 262.75-16.41 261.19-15.5L261.19-15.5Q263.77-14.67 265.15-12.83 266.53-10.99 266.53-8.28L266.53-8.28Q266.53-5.71 265.43-3.86 264.34-2 262.24-1 260.14 0 257.16 0L257.16 0 243.31 0Q242.48 0 242.13-0.38 241.78-0.76 241.78-1.66L241.78-1.66Q241.78-2.56 242.13-2.94 242.48-3.32 243.31-3.32L243.31-3.32 246.29-3.32 246.29-25.66 243.31-25.66Q242.48-25.66 242.13-26.04 241.78-26.42 241.78-27.32L241.78-27.32Q241.78-28.22 242.13-28.6 242.48-28.98 243.31-28.98L243.31-28.98 255.55-28.98ZM249.96-25.66L249.96-16.63 255.01-16.63Q257.82-16.63 259.26-17.8 260.7-18.97 260.7-21.12L260.7-21.12Q260.7-23.36 259.28-24.51 257.87-25.66 255.01-25.66L255.01-25.66 249.96-25.66ZM249.96-13.31L249.96-3.32 256.43-3.32Q259.43-3.32 261.05-4.61 262.68-5.91 262.68-8.28L262.68-8.28Q262.68-13.31 256.55-13.31L256.55-13.31 249.96-13.31ZM294.83-10.5Q295.83-10.5 296.24-10.13 296.66-9.77 296.66-8.91L296.66-8.91 296.66-1.66Q296.66-0.76 296.3-0.38 295.95 0 295.12 0L295.12 0 273.29 0Q272.46 0 272.11-0.38 271.75-0.76 271.75-1.66L271.75-1.66Q271.75-2.56 272.11-2.94 272.46-3.32 273.29-3.32L273.29-3.32 275.78-3.32 275.78-25.66 273.29-25.66Q272.46-25.66 272.11-26.04 271.75-26.42 271.75-27.32L271.75-27.32Q271.75-28.22 272.11-28.6 272.46-28.98 273.29-28.98L273.29-28.98 294.63-28.98Q295.46-28.98 295.81-28.6 296.17-28.22 296.17-27.32L296.17-27.32 296.17-21.12Q296.17-20.26 295.75-19.9 295.34-19.53 294.34-19.53L294.34-19.53Q293.34-19.53 292.92-19.9 292.51-20.26 292.51-21.12L292.51-21.12 292.51-25.66 279.45-25.66 279.45-16.6 285.74-16.6 285.74-18.82Q285.74-19.68 286.12-20.04 286.5-20.41 287.48-20.41L287.48-20.41Q288.45-20.41 288.83-20.04 289.21-19.68 289.21-18.82L289.21-18.82 289.21-11.06Q289.21-10.21 288.83-9.84 288.45-9.47 287.48-9.47L287.48-9.47Q286.5-9.47 286.12-9.84 285.74-10.21 285.74-11.06L285.74-11.06 285.74-13.28 279.45-13.28 279.45-3.32 293-3.32 293-8.91Q293-9.77 293.41-10.13 293.83-10.5 294.83-10.5L294.83-10.5Z" opacity="1" transform="matrix(1,0,0,1,0,0)" fill="#0063db" class="wordmark-text-0" data-fill-palette-color="primary" id="text-0"></path></svg></g></svg></g></svg></g></svg></g><g><svg viewBox="0 0 90.99809287157056 90.99809287157056" height="90.99809287157056" width="90.99809287157056"><g><svg></svg></g><g id="icon-0"><svg viewBox="0 0 90.99809287157056 90.99809287157056" height="90.99809287157056" width="90.99809287157056"><g><rect width="82.74085851840954" height="82.74085851840954" x="4.128617176580512" y="4.128617176580512" fill="#46f507" data-fill-palette-color="accent"></rect><rect width="82.74085851840954" height="82.74085851840954" x="8.257234353161028" y="-3.552713678800501e-15" fill="#46f507" opacity="0.5" data-fill-palette-color="accent"></rect></g><g transform="matrix(1,0,0,1,11.796049075944332,11.796049075944332)"><svg viewBox="0 0 67.4059947196819 67.4059947196819" height="67.4059947196819" width="67.4059947196819"><g><svg xmlns="http://www.w3.org/2000/svg" xmlns:xlink="http://www.w3.org/1999/xlink" version="1.1" viewBox="0 0 96 96" x="0" y="0" height="67.4059947196819" width="67.4059947196819" class="icon-s-0" data-fill-palette-color="background" id="s-0"><path d="M38 68.476c-0.328 0-0.652-0.08-0.948-0.244-0.648-0.34-1.052-1.02-1.052-1.756v-36.952c0-0.736 0.404-1.416 1.052-1.752 0.644-0.352 1.432-0.32 2.048 0.088l28 18.476c0.56 0.368 0.9 0.992 0.9 1.664s-0.336 1.304-0.9 1.672l-28 18.476c-0.332 0.22-0.716 0.328-1.1 0.328zM40 33.244v29.524l22.368-14.756-22.368-14.768z" fill="#ffffff" data-fill-palette-color="background"></path><path d="M48 4c24.256 0 44 19.744 44 44s-19.744 44-44 44c-24.26 0-44-19.744-44-44s19.74-44 44-44zM48 0c-26.508 0-48 21.492-48 48s21.492 48 48 48 48-21.492 48-48-21.492-48-48-48v0z" fill="#ffffff" data-fill-palette-color="background"></path></svg></g></svg></g></svg></g></svg></g></svg></g><defs></defs></svg><rect width="395.52" height="72.58276764799957" fill="none" stroke="none" visibility="hidden"></rect></g></svg></g></svg>